<?xml version="1.0" standalone="no"?>
<!DOCTYPE svg PUBLIC "-//W3C//DTD SVG 20010904//EN"
 "http://www.w3.org/TR/2001/REC-SVG-20010904/DTD/svg10.dtd">
<svg version="1.0" xmlns="http://www.w3.org/2000/svg"
 width="980.000000pt" height="888.000000pt" viewBox="0 0 980.000000 888.000000"
 preserveAspectRatio="xMidYMid meet">

<g transform="translate(0.000000,888.000000) scale(0.100000,-0.100000)"
fill="#000000" stroke="none">
<path d="M4695 8846 c-253 -98 -482 -294 -627 -538 -153 -258 -237 -653 -214
-1011 7 -106 10 -117 26 -112 65 20 311 47 485 52 213 6 407 -9 591 -45 l92
-18 78 49 c44 26 108 64 144 82 109 56 105 49 86 138 -55 268 -182 484 -375
639 -174 141 -238 211 -290 318 -34 70 -36 81 -36 170 0 83 4 103 28 154 15
33 43 79 63 103 40 49 33 51 -51 19z"/>
<path d="M1509 7745 c-251 -549 -66 -1190 489 -1691 l93 -85 56 78 c267 375
630 690 1013 883 l83 42 -59 59 c-118 121 -302 244 -445 299 -191 73 -311 88
-541 64 -140 -14 -182 -15 -253 -5 -236 33 -365 156 -392 373 l-8 63 -36 -80z"/>
<path d="M6635 7410 c-721 -47 -1395 -353 -1912 -869 -390 -388 -664 -876
-793 -1415 -58 -241 -74 -383 -74 -681 -1 -234 2 -290 23 -425 48 -321 135
-598 276 -885 263 -537 664 -967 1188 -1274 878 -514 2007 -527 2902 -34 768
423 1306 1143 1489 1994 48 221 60 345 60 619 0 274 -12 398 -60 619 -220
1023 -955 1851 -1947 2196 -352 123 -773 179 -1152 155z"/>
<path d="M4190 6943 c-589 -60 -1134 -323 -1546 -745 -423 -433 -664 -964
-715 -1578 -27 -328 29 -728 146 -1045 88 -241 242 -511 407 -716 94 -117 306
-325 415 -407 348 -263 740 -432 1158 -498 115 -18 476 -30 588 -20 l75 8
-177 176 c-97 97 -213 222 -257 277 -193 242 -381 566 -492 845 -250 628 -297
1339 -132 1990 154 607 459 1130 915 1568 l146 139 -47 7 c-47 6 -420 6 -484
-1z"/>
<path d="M1267 5020 c-550 -50 -975 -309 -1182 -720 -34 -68 -85 -191 -85
-206 0 -4 19 10 41 31 62 55 158 97 238 103 165 11 323 -84 488 -295 164 -210
351 -330 618 -398 92 -24 266 -45 363 -45 47 0 53 2 47 18 -22 58 -80 270
-100 370 -62 303 -72 690 -25 990 12 79 20 145 18 147 -9 10 -328 13 -421 5z"/>
<path d="M1998 2826 c-318 -288 -528 -640 -583 -978 -40 -246 1 -536 104 -735
l30 -58 1 40 c2 128 81 270 187 332 113 66 248 83 468 58 194 -21 316 -11 473
42 165 55 338 163 481 299 l86 81 -84 43 c-386 193 -746 507 -1014 883 l-56
78 -93 -85z"/>
<path d="M3490 1723 c1 -184 48 -406 120 -559 71 -153 159 -264 300 -377 208
-167 299 -294 316 -441 11 -93 -26 -208 -97 -297 -17 -22 -26 -39 -20 -39 28
0 176 65 249 109 332 199 536 504 628 934 23 107 27 153 31 375 3 140 2 257
-3 262 -5 4 -54 0 -109 -10 -418 -76 -931 -39 -1326 95 -40 14 -76 25 -81 25
-4 0 -8 -35 -8 -77z"/>
</g>
</svg>
